<?xml version="1.0" encoding="utf-8"?>
<!-- Generator: Adobe Illustrator 21.1.0, SVG Export Plug-In . SVG Version: 6.00 Build 0)  -->
<svg version="1.1" id="Layer_1" xmlns="http://www.w3.org/2000/svg" xmlns:xlink="http://www.w3.org/1999/xlink" x="0px" y="0px"
	 viewBox="0 0 165 165" style="enable-background:new 0 0 165 165;" xml:space="preserve">
<style type="text/css">
	.st0{fill:#D4E0E1;}
	.st1{fill:#FFFFFF;}
	.st2{fill:#312F31;}
	.st3{fill:#051521;}
	.st4{fill:none;stroke:#B08C55;stroke-miterlimit:10;}
	.st5{fill:#3D747B;}
	.st6{opacity:0.1;}
	.st7{fill:#EFE8DD;}
	.st8{fill:#B08C55;}
	.st9{fill:#83A6AB;}
	.st10{fill:#666666;}
	.st11{opacity:0.3;fill:#3D747B;}
	.st12{fill:#808080;}
	.st13{fill:#29ABE2;}
	.st14{fill:#F7931E;}
	.st15{fill:#E6E6E6;}
	.st16{fill:#B3B3B3;}
	.st17{fill:none;stroke:#FFFFFF;stroke-width:2;stroke-linecap:round;stroke-linejoin:round;stroke-miterlimit:10;}
	.st18{fill:#00A99D;}
	.st19{fill:#FFFFFF;stroke:#FFFFFF;stroke-width:0.5;stroke-miterlimit:10;}
	.st20{opacity:0.2;fill:#5F8C93;}
	.st21{fill:none;stroke:#FFFFFF;stroke-width:2.663;stroke-miterlimit:10;}
	.st22{fill:#FFFFFF;stroke:#FFFFFF;stroke-width:1.3315;stroke-miterlimit:10;}
	.st23{fill:#B08C55;stroke:#D0BA99;stroke-width:3.9944;stroke-miterlimit:10;}
	.st24{fill:none;stroke:#B08C55;stroke-width:2.663;stroke-linecap:round;stroke-linejoin:round;stroke-miterlimit:10;}
	.st25{fill:url(#SVGID_1_);}
	.st26{fill:url(#SVGID_2_);}
	.st27{fill:#5F8C93;}
	.st28{opacity:0.2;}
	.st29{opacity:0;}
	.st30{opacity:9.090909e-02;}
	.st31{opacity:0.1818;}
	.st32{opacity:0.2727;}
	.st33{opacity:0.3636;}
	.st34{opacity:0.4545;}
	.st35{opacity:0.5455;}
	.st36{opacity:0.6364;}
	.st37{opacity:0.7273;}
	.st38{opacity:0.8182;}
	.st39{opacity:0.9091;}
	.st40{fill:#4D4D4D;}
	.st41{fill:url(#SVGID_3_);}
	.st42{fill:url(#SVGID_4_);}
	.st43{fill:url(#SVGID_5_);}
	.st44{fill:#333333;}
	.st45{opacity:0.8;fill:url(#SVGID_6_);}
	.st46{opacity:0.8;fill:url(#SVGID_7_);}
	.st47{fill:url(#SVGID_8_);}
	.st48{fill:url(#SVGID_9_);}
	.st49{fill:url(#SVGID_10_);}
	.st50{fill:url(#SVGID_11_);}
	.st51{fill:url(#SVGID_12_);}
	.st52{fill:#999999;}
	.st53{fill:url(#SVGID_13_);}
	.st54{fill:url(#SVGID_14_);}
	.st55{opacity:0.5;fill:url(#SVGID_15_);}
	.st56{fill:url(#SVGID_16_);}
	.st57{fill:#70789C;}
	.st58{fill:url(#SVGID_17_);}
	.st59{fill:url(#SVGID_18_);}
	.st60{fill:url(#SVGID_19_);}
	.st61{fill:url(#SVGID_20_);}
	.st62{fill:url(#SVGID_21_);}
	.st63{opacity:0.2;fill:url(#SVGID_22_);}
	.st64{fill:url(#SVGID_23_);}
	.st65{fill:url(#SVGID_24_);}
	.st66{fill:url(#SVGID_25_);}
	.st67{fill:url(#SVGID_26_);}
	.st68{fill:url(#SVGID_27_);}
	.st69{fill:url(#SVGID_28_);}
	.st70{fill:url(#SVGID_29_);}
	.st71{fill:url(#SVGID_30_);}
	.st72{opacity:0.2;fill:url(#SVGID_31_);}
	.st73{opacity:0.3;fill:url(#SVGID_32_);}
	.st74{fill:url(#SVGID_33_);}
	.st75{fill:url(#SVGID_34_);}
	.st76{opacity:0.5;fill:url(#SVGID_35_);}
	.st77{fill:url(#SVGID_36_);}
	.st78{fill:url(#SVGID_37_);}
	.st79{fill:#051521;stroke:#051521;stroke-width:1.3971;stroke-miterlimit:10;}
	.st80{fill:url(#SVGID_38_);}
	.st81{fill:url(#SVGID_39_);}
	.st82{fill:url(#SVGID_40_);}
	.st83{opacity:0.6;fill:url(#SVGID_41_);}
	.st84{opacity:0.8;fill:url(#SVGID_42_);}
	.st85{fill:url(#SVGID_43_);}
	.st86{fill:url(#SVGID_44_);}
	.st87{fill:url(#SVGID_45_);}
	.st88{fill:url(#SVGID_46_);}
	.st89{fill:url(#SVGID_47_);}
	.st90{fill:url(#SVGID_48_);}
	.st91{fill:url(#SVGID_49_);}
	.st92{fill:url(#SVGID_50_);}
	.st93{fill:url(#SVGID_51_);}
	.st94{fill:url(#SVGID_52_);}
	.st95{fill:url(#SVGID_53_);}
	.st96{fill:url(#SVGID_54_);}
	.st97{fill:url(#SVGID_55_);}
	.st98{fill:url(#SVGID_56_);}
	.st99{opacity:0.2;fill:url(#SVGID_57_);}
	.st100{fill:url(#SVGID_58_);}
	.st101{fill:url(#SVGID_59_);}
	.st102{fill:url(#SVGID_60_);}
	.st103{fill:url(#SVGID_61_);}
	.st104{fill:url(#SVGID_62_);}
	.st105{fill:url(#SVGID_63_);}
	.st106{fill:url(#SVGID_64_);}
	.st107{fill:url(#SVGID_65_);}
	.st108{opacity:0.2;fill:url(#SVGID_66_);}
	.st109{opacity:0.3;fill:url(#SVGID_67_);}
	.st110{fill:url(#SVGID_68_);}
	.st111{fill:url(#SVGID_69_);}
	.st112{fill:url(#SVGID_70_);}
	.st113{fill:#DFD1BB;stroke:#FFFFFF;stroke-width:1.3315;stroke-miterlimit:10;}
	.st114{fill:url(#SVGID_71_);}
	.st115{fill:url(#SVGID_72_);}
	.st116{fill:url(#SVGID_73_);}
	.st117{fill:url(#SVGID_74_);}
	.st118{fill:#EFE8DD;stroke:#808080;stroke-miterlimit:10;}
	.st119{fill:none;stroke:#3D747B;stroke-width:2;stroke-linecap:round;stroke-linejoin:round;stroke-miterlimit:10;}
	.st120{fill:#2E575C;}
	.st121{fill:#846940;}
	.st122{fill:url(#SVGID_75_);}
	.st123{fill:url(#SVGID_76_);}
	.st124{fill:url(#SVGID_77_);}
	.st125{opacity:0.8;fill:url(#SVGID_78_);}
	.st126{opacity:0.8;fill:url(#SVGID_79_);}
	.st127{fill:url(#SVGID_80_);}
	.st128{fill:url(#SVGID_81_);}
	.st129{fill:url(#SVGID_82_);}
	.st130{fill:url(#SVGID_83_);}
	.st131{fill:url(#SVGID_84_);}
	.st132{fill:url(#SVGID_85_);}
	.st133{fill:url(#SVGID_86_);}
	.st134{opacity:0.5;fill:url(#SVGID_87_);}
	.st135{fill:url(#SVGID_88_);}
	.st136{fill:url(#SVGID_89_);}
	.st137{fill:url(#SVGID_90_);}
	.st138{fill:url(#SVGID_91_);}
	.st139{fill:url(#SVGID_92_);}
	.st140{fill:url(#SVGID_93_);}
	.st141{opacity:0.2;fill:url(#SVGID_94_);}
	.st142{fill:url(#SVGID_95_);}
	.st143{fill:url(#SVGID_96_);}
	.st144{fill:url(#SVGID_97_);}
	.st145{fill:url(#SVGID_98_);}
	.st146{fill:url(#SVGID_99_);}
	.st147{fill:url(#SVGID_100_);}
	.st148{fill:url(#SVGID_101_);}
	.st149{fill:url(#SVGID_102_);}
	.st150{opacity:0.2;fill:url(#SVGID_103_);}
	.st151{opacity:0.3;fill:url(#SVGID_104_);}
	.st152{fill:url(#SVGID_105_);}
	.st153{fill:url(#SVGID_106_);}
	.st154{opacity:0.5;fill:url(#SVGID_107_);}
</style>
<g class="st6">
	<path class="st3" d="M81.4,148.6c-4.5-0.8-8.5,2-9.3,6.6c-0.8,4.5,2,8.5,6.5,9.3c4.6,0.8,8.6-2,9.3-6.5
		C88.7,153.4,85.9,149.4,81.4,148.6 M79.3,160.4c-2.2-0.4-3.4-2.3-3-4.5c0.4-2.2,2.2-3.6,4.3-3.2c2.2,0.4,3.4,2.3,3,4.5
		C83.3,159.3,81.5,160.8,79.3,160.4"/>
	<path class="st3" d="M105.9,145.1l-5.4,1.9c-0.2,0.1-0.3,0.3-0.2,0.5c0.1,0.2,0.3,0.3,0.5,0.2c0.6-0.2,1.3,0.1,1.6,0.6l4.5,13.1
		l11.3-3.9l-1.2-3.6l-7.1,2.5L105.9,145.1z"/>
	<path class="st3" d="M25.6,131.7c-1.6,1.3-3.2,1.2-4.5-0.3c-1.2-1.5-0.9-3.1,0.7-4.4l6.7-5.3l-3.6-4.5c-0.1-0.2-0.3-0.2-0.5-0.1
		c-0.2,0.1-0.2,0.3-0.1,0.5c0.4,0.5,0.4,1.3-0.1,1.8l-5.5,4.4c-3.2,2.5-3.8,6.4-0.9,10.2c3,3.7,7.2,3.8,10.1,1.5l6.9-5.5l-2.7-3.5
		L25.6,131.7z"/>
	<path class="st3" d="M37.8,132.6c-0.1,0.2-0.1,0.4,0.1,0.5c0.6,0.4,0.8,1.2,0.4,1.8l-7.8,11.3l10.5,7.2l2.2-3.2l-7-4.8l1.3-1.9
		l5.6,3.9l2-3l-5.6-3.9l1.2-1.7l7,4.8l2.2-3.2l-11.6-8C38.2,132.4,37.9,132.5,37.8,132.6"/>
	<path class="st3" d="M115.6,141.6c0.1,0.2,0.3,0.2,0.5,0.1c0.6-0.4,1.4-0.3,1.8,0.3l7.6,11.4l10.6-7.1l-2.1-3.2l-7.1,4.7l-1.3-1.9
		l5.7-3.8l-2-3l-5.7,3.8l-1.1-1.7l7.1-4.7l-2.1-3.2l-11.7,7.8C115.6,141.2,115.5,141.4,115.6,141.6"/>
	<path class="st3" d="M136,124.6c-2.9,3.6-2.3,8.4,1.3,11.3c3.6,2.9,8.4,2.3,11.3-1.2c2.9-3.6,2.4-8.5-1.2-11.3
		C143.8,120.5,138.9,121,136,124.6 M145.3,132.1c-1.4,1.7-3.7,1.8-5.4,0.5c-1.7-1.4-2.1-3.7-0.7-5.4c1.4-1.7,3.7-1.8,5.4-0.5
		C146.3,128.1,146.7,130.3,145.3,132.1"/>
	<path class="st3" d="M136.3,118.4l-0.7-0.6l-4.8,6c-0.8,1-0.6,2.4,0.3,3.2l0.7,0.6l4.9-6C137.5,120.6,137.3,119.2,136.3,118.4"/>
	<path class="st3" d="M150.5,98.5l-2.2,5.3l8,3.3l-10.7,3.2l-1.5,3.5l12.6,5.3c0.6,0.3,0.9,1,0.6,1.7c-0.1,0.2,0,0.4,0.2,0.5
		c0.2,0.1,0.4,0,0.5-0.2l2.2-5.3l-7.9-3.3l10.7-3.2l1.5-3.5l-12.6-5.3c-0.6-0.3-0.9-1-0.6-1.7c0.1-0.2,0-0.4-0.2-0.5
		C150.8,98.2,150.6,98.3,150.5,98.5"/>
	<path class="st3" d="M68.5,149c0.3-0.3,0.8-0.4,1.3-0.2c0.2,0.1,0.4,0,0.5-0.2c0.1-0.2,0-0.4-0.2-0.5l-0.6-0.2l-4.6-1.5l-7.2,9.5
		l0-11.9l-4.6-1.5l0.6,16.7l5.3,1.8l9.2-11.4L68.5,149z"/>
	<path class="st3" d="M9.2,119.9c-0.3-0.7,0-1.4,0.6-1.7l12.6-5.3l-1.7-4.1l-8,3.3l5.2-9.9l-2-4.8c-0.1-0.2-0.3-0.3-0.5-0.2
		c-0.2,0.1-0.3,0.3-0.2,0.5c0.3,0.6,0,1.4-0.6,1.7l-12.7,5.3l1.7,4.1l7.9-3.3l-5.2,9.9l2,4.8c0.1,0.2,0.3,0.3,0.5,0.2
		C9.1,120.3,9.2,120.1,9.2,119.9"/>
	<path class="st3" d="M2,79c1.2,0,1.7-0.4,1.7-1.3c0-0.9-0.6-1.2-1.6-1.2c-1,0-1.9,0.4-1.9,0.4l0.1,1c0,0,0.9-0.5,1.6-0.5
		c0.6,0,0.7,0.1,0.7,0.4c0,0.3-0.1,0.4-0.8,0.4C1,78.1,0,78.7,0,79.7v0.8h3.7v-0.9H1.1C1.1,79.2,1.5,79,2,79"/>
	<path class="st3" d="M6.2,78.5c0,1.4,0.8,2.1,2.2,2.1c1.4,0,2.2-0.7,2.2-2.1c0-1.4-0.8-2.1-2.2-2.1C7,76.4,6.2,77.1,6.2,78.5
		 M9.5,78.5c0,0.8-0.2,1.1-1.1,1.1c-1,0-1.1-0.3-1.1-1.1c0-0.8,0.2-1.1,1.1-1.1C9.3,77.3,9.5,77.6,9.5,78.5"/>
	<path class="st3" d="M13.3,77.8c0,0,0.9-0.5,1.6-0.5c0.6,0,0.7,0.1,0.7,0.4c0,0.3-0.1,0.4-0.8,0.4c-0.9,0-1.9,0.7-1.9,1.6v0.8h3.7
		v-0.9H14c0.1-0.4,0.4-0.6,0.9-0.6c1.2,0,1.7-0.4,1.7-1.3c0-0.9-0.6-1.2-1.6-1.2c-1,0-1.9,0.4-1.9,0.4L13.3,77.8z"/>
	<path class="st3" d="M19.1,79.6v0.9h3.1v-0.9h-1v-3.1h-1.1v0.1c0,0.5-0.5,0.7-0.9,0.7h-0.1v1h0.1c0.4,0,0.7-0.1,0.9-0.3v1.5H19.1z"
		/>
	<path class="st3" d="M143.9,78.1c-0.9,0-1.9,0.7-1.9,1.6v0.8h3.7v-0.9h-2.6c0.1-0.4,0.4-0.6,0.9-0.6c1.2,0,1.7-0.4,1.7-1.3
		c0-0.9-0.6-1.2-1.6-1.2c-1,0-1.9,0.4-1.9,0.4l0.1,1c0,0,0.9-0.5,1.6-0.5c0.6,0,0.7,0.1,0.7,0.4C144.7,78,144.6,78.1,143.9,78.1"/>
	<path class="st3" d="M152.6,78.5c0-1.4-0.8-2.1-2.2-2.1c-1.4,0-2.2,0.7-2.2,2.1s0.8,2.1,2.2,2.1C151.7,80.6,152.6,79.8,152.6,78.5
		 M149.2,78.5c0-0.8,0.2-1.1,1.1-1.1s1.1,0.3,1.1,1.1c0,0.8-0.2,1.1-1.1,1.1S149.2,79.3,149.2,78.5"/>
	<path class="st3" d="M156.8,78.1c-0.9,0-1.9,0.7-1.9,1.6v0.8h3.7v-0.9H156c0.1-0.4,0.4-0.6,0.9-0.6c1.2,0,1.7-0.4,1.7-1.3
		c0-0.9-0.6-1.2-1.6-1.2c-1,0-1.9,0.4-1.9,0.4l0.1,1c0,0,0.9-0.5,1.6-0.5c0.6,0,0.7,0.1,0.7,0.4C157.7,78,157.5,78.1,156.8,78.1"/>
	<polygon class="st3" points="162.3,80.5 165,77.3 165,76.5 161.1,76.5 161.1,77.4 163.7,77.4 161.1,80.5 	"/>
	<path class="st3" d="M47,64.2v6.4c0,1,0.4,2,1,2.7l5,6.5c-0.4,0-0.8-0.1-1.2-0.1l-5.1,0v6.5c0,1,0.4,2,1,2.7l6,7.7
		c0.6,0.8,1.6,1.3,2.6,1.3h11.4c-0.5,1-0.8,2.2-0.8,3.4v3.8l3.3,2.6c0.2,0.2,0.2,0.5,0,0.7l-2.6,2.1h-4c-3.9,0-7.1,3.2-7.1,7.1v6.3
		h19.7l15.1-16.8l5.4,3.4H94c-3.9,0-7.1,3.2-7.1,7.1v6.3h17l11.2-9l0.2-0.2c0.9-0.9,1.4-2.1,1.4-3.4c0-1.2-0.5-2.4-1.3-3.3l-6.4-7.6
		l-0.2-0.2v-11l1.9-1.9c4.5-4.5,4.5-11.8,0-16.4l-0.8-0.8c-1.4-1.4-2.2-3.2-2.2-5.2c0-2,0.8-3.8,2.2-5.2c1.4-1.4,3.2-2.2,5.2-2.2h0
		l0.7,0v4.5c0,1.7,1.3,3,3,3h1.2v-8.7c0-1.7-1.3-3-3-3h-1.2v0l-0.7,0h0c-3.1,0-6,1.2-8.2,3.4c-2.2,2.2-3.4,5.1-3.4,8.2
		c0,3.1,1.2,6,3.4,8.2l0.8,0.8c2.9,2.9,2.9,7.6,0,10.4l-1,1l-8.7-6.4l2.7-2l0-20.8c0-3.5-1.3-6.7-3.8-9.2c-2.5-2.5-5.7-3.8-9.2-3.8
		H73.2l0,0h-2.9c-0.8,0-1.3,0.9-0.8,1.6l1.9,2.4l-8.1,3.2c-0.9,0.3-1.6,1.1-1.6,2.1v9.2c0,0.6,0.3,1.3,0.7,1.7l2.3,2.3
		c0.5,0.5,1.1,0.7,1.7,0.7h4.8l-1.3,1.1c-0.6,0.5-1.1,1.1-1.5,1.7h-7L61,69c-2.6-3.3-5.4-4.8-9-4.8H47z M70.7,82.2l-3.1,2.9h-6.3
		L61,84.6c-0.7-1-1.5-1.8-2.3-2.4H70.7z M74.4,119.8H60.7v-2.1c0-1.6,1.3-2.9,2.9-2.9H69l3.9-3.1l0.2-0.2c1.9-1.9,1.9-4.9,0-6.8
		l-2.1-1.6v-1.7c0-0.9,0.4-1.8,1-2.4c0.6-0.6,1.5-1,2.4-1h0h10.3c0.1,0,0.1,0,0.2,0.1l2.3,1.9v2.5c0,0.8,0.3,1.7,0.7,2.3L74.4,119.8
		z M104.6,89.2c0,0,0,0.1,0,0.2v11.1c0,1.1,0.5,2.2,1.3,2.9l6.3,7.5l0.1,0.1c0.1,0.1,0.2,0.3,0.2,0.4c0,0.1,0,0.2-0.1,0.4l-9.9,8
		H91.1v-2.1c0-1.6,1.3-2.9,2.9-2.9h6.3l0.6-0.6c0.8-0.8,1.3-1.9,1.2-3.1c-0.1-1.2-0.6-2.2-1.5-3l-9.3-5.8v-4.4l-3.9-3.1
		c-0.8-0.6-1.8-1-2.8-1h-5.3v0H56.8L51,86.4l-0.1-2.5h0.9c2.4,0,4.1,1,5.9,3.3l1.6,2.1h10l5.6-5.3l9.3,5.8l10.3-7.9L104.6,89.2z
		 M67.1,62.4l-1.3-1.3V54l9-3.5l3.9,4.4V60l-2.8,2.4H67.1z M72.6,70.9l2.2-2l7-6.1l0.1-0.1c0.6-0.6,1-1.5,1-2.3v-5.9
		c0-0.9-0.3-1.7-0.9-2.3l-4.3-4.7h9.9c2.4,0,4.6,0.9,6.2,2.6c1.7,1.7,2.6,3.9,2.6,6.2l0,18.7l-12.5,9.6l-9.4-6l-1.2-0.7
		c-1.3-0.7-2.1-2-2.2-3.4C70.9,73.2,71.5,71.8,72.6,70.9 M57.7,71.6l1.6,2h7.6c0,0.5,0,1,0,1.4c0.1,1,0.4,2,0.8,2.9H56.9l-5.6-7.2
		l-0.1-2.3H52C54.3,68.4,55.9,69.3,57.7,71.6"/>
	<path class="st3" d="M46.6,58.9v1.2h8.7c1.7,0,3-1.3,3-3v-1.2h-8.7C47.9,55.9,46.6,57.3,46.6,58.9"/>
	<path class="st3" d="M76.3,40.9h15c0.5,0,0.9-0.4,0.9-0.9v-6.2c0-0.3-0.2-0.6-0.5-0.7c-0.3-0.1-0.6-0.1-0.9,0.1l-3.3,2.9l-3.2-2.9
		c-0.3-0.3-0.9-0.3-1.2,0l-3.2,2.7l-3.3-2.8c-0.2-0.2-0.6-0.3-0.8-0.1c-0.3,0.1-0.5,0.4-0.5,0.7V40C75.4,40.5,75.8,40.9,76.3,40.9"
		/>
	<polygon class="st3" points="15.1,55.7 17,50.6 18.8,51.2 16.2,58.4 8.2,55.5 10.8,48.5 12.6,49.1 10.8,54.1 12,54.5 13.4,50.6 
		15.2,51.2 13.8,55.2 	"/>
	<polygon class="st3" points="18.6,47.3 20.7,43 22.5,43.8 19.3,50.1 11.7,46.3 12.7,44.3 	"/>
	<path class="st3" d="M24.7,32.4l3-3.8l3.6,2.8L30,33.1l-0.5-0.4c-0.1,1-0.5,1.9-1.2,2.8c-1.8,2.3-4.5,3-6.6,1.3
		c-2.1-1.7-2.1-4.4-0.3-6.7c2-2.6,4.2-2.7,4.2-2.7l0.1,2c0,0-1.3,0.2-2.6,1.9c-1.2,1.5-1.3,2.6,0.1,3.7c1.4,1.1,2.4,0.7,3.6-0.8
		c0.7-0.8,0.9-1.6,0.8-2.3l-1.3,1.6L24.7,32.4z"/>
	<path class="st3" d="M36.6,20.7c1.8,2,1.4,4.7-0.8,6.7c-2.2,2-4.9,2.2-6.7,0.3c-1.8-2-1.4-4.7,0.8-6.7
		C32.1,18.9,34.8,18.7,36.6,20.7 M31.3,22.4c-1.4,1.3-1.7,2.4-0.5,3.7c1.2,1.3,2.3,1.1,3.7-0.2c1.4-1.3,1.7-2.4,0.5-3.7
		C33.8,20.9,32.7,21.1,31.3,22.4"/>
	<path class="st3" d="M45.8,16.6c0.9,1.4,0.4,2.5-1.3,3.7l-4.1,2.8l-4.8-7l3.5-2.4c1.8-1.2,3.1-1.2,4,0.1c0.4,0.6,0.5,1.1,0.4,1.6
		C44.7,15.3,45.3,15.9,45.8,16.6 M41.5,15.2c-0.2-0.3-0.4-0.4-1.3,0.2l-1.7,1.2l0.7,1.1l1.8-1.3C41.8,15.8,41.7,15.5,41.5,15.2
		 M41.1,20.3l2.3-1.6c0.5-0.4,0.6-0.7,0.3-1.1c-0.3-0.4-0.5-0.5-1.6,0.2l-1.8,1.3L41.1,20.3z"/>
	<rect x="46.1" y="9.5" transform="matrix(0.8728 -0.488 0.488 0.8728 -0.7097 24.761)" class="st3" width="2.2" height="8.5"/>
	<polygon class="st3" points="52.8,13.4 57.8,11.2 58.5,13 51.6,16.1 48.1,8.3 55,5.3 55.7,7.1 50.9,9.2 51.4,10.4 55.3,8.6 
		56.1,10.4 52.2,12.1 	"/>
	<path class="st3" d="M65.4,8.4l2.3,1.8l-2.5,0.7l-2.1-1.7l-1.9,0.6l0.6,2.1l-2.1,0.6l-2.4-8.1l5.1-1.5c2.4-0.7,3.7,1,4,2
		C66.6,6.1,66.5,7.5,65.4,8.4 M62.9,4.8l-3,0.9L60.6,8l3.1-0.9c0.9-0.3,0.6-1.3,0.6-1.3C64.3,5.4,63.9,4.5,62.9,4.8"/>
	<polygon class="st3" points="74.1,0.6 76.1,0.3 77.4,8.7 75.4,9 70.3,4.4 71,9.6 69,9.9 67.8,1.6 69.7,1.3 74.8,5.8 	"/>
	<path class="st3" d="M88.8,4.4c0,2.7-2.2,4.3-5.2,4.3c-3,0-5.1-1.8-5.1-4.4c0-2.7,2.2-4.3,5.2-4.3C86.7,0,88.8,1.8,88.8,4.4
		 M83.7,2c-1.9,0-2.9,0.6-2.9,2.3c0,1.8,0.9,2.4,2.8,2.4c1.9,0,2.9-0.6,2.9-2.3C86.5,2.6,85.6,2,83.7,2"/>
	<path class="st3" d="M103.6,7c-0.6,2.8-2.3,3.8-4.7,3.3l-4.5-1l1.8-8.3l4.5,1C103.1,2.6,104.2,4.3,103.6,7 M100.3,4l-2.4-0.5
		l-1,4.5l2.4,0.5c0.8,0.2,1.5,0.4,2-1.9C101.8,4.2,101.1,4.1,100.3,4"/>
	<polygon class="st3" points="106.5,10.5 111.6,12.4 111,14.2 103.8,11.6 106.7,3.6 113.8,6.2 113.1,8 108.1,6.2 107.7,7.4 
		111.7,8.8 111,10.6 107,9.2 	"/>
	<polygon class="st3" points="114.9,14 119.2,16.2 118.3,17.9 112.1,14.7 115.9,7.2 117.9,8.2 	"/>
	<polygon class="st3" points="133.2,18.1 134.9,19.4 129.7,26 128.1,24.8 127.9,18 124.6,22.1 123,20.8 128.2,14.2 129.8,15.4 
		130,22.2 	"/>
	<path class="st3" d="M138.5,28.6l2.9-2.8l1.5,1.6l-2.9,2.8c-2.1,2-4.5,2-6.4,0c-1.9-2-1.8-4.4,0.3-6.4l2.9-2.8l1.5,1.6l-2.9,2.8
		c-1.3,1.3-1.5,2.3-0.4,3.4C136.1,29.9,137.1,29.9,138.5,28.6z"/>
	<polygon class="st3" points="140.4,35 143.6,39.3 142.1,40.5 137.6,34.3 144.4,29.3 148.8,35.4 147.3,36.5 144.1,32.2 143.1,33 
		145.6,36.4 144.1,37.5 141.6,34.1 	"/>
	<polygon class="st3" points="153.2,43 154.3,45.1 145.4,46.5 143.9,43.6 149.8,36.9 151,39 146.6,44 	"/>
	<path class="st3" d="M154.5,57.3c-2.5,0.9-4.8-0.5-5.9-3.3c-1-2.8-0.2-5.4,2.3-6.3c2.5-0.9,4.8,0.5,5.9,3.3
		C157.8,53.8,157,56.4,154.5,57.3 M154.9,51.7c-0.7-1.8-1.6-2.5-3.2-1.9c-1.7,0.6-1.9,1.7-1.2,3.5c0.7,1.8,1.6,2.5,3.2,1.9
		C155.4,54.6,155.6,53.5,154.9,51.7"/>
</g>
</svg>
